<svg xmlns="http://www.w3.org/2000/svg" width="122.001" height="161.439" viewBox="0 0 122.001 161.439">
  <g id="Group_1036" data-name="Group 1036" transform="translate(-691.999 -1275.357)">
    <g id="Group_1022" data-name="Group 1022" transform="translate(211.266 -8460.239)">
      <path id="Path_638" data-name="Path 638" d="M50.048,1006.668a56.786,56.786,0,0,1-19.382-42.854v-66.3l55.409-26.925,55.459,26.927v66.295a56.813,56.813,0,0,1-16.307,39.959l-5.567,4.948a54.493,54.493,0,0,1-64.046,2.226M25.1,894.035v69.78c0,34.2,27.365,62.029,61,62.029s61-27.826,61-62.029v-69.78L86.076,864.4Z" transform="translate(455.634 8871.192)" fill="#5a657b"/>
    </g>
    <g id="Icon_feather-gift" data-name="Icon feather-gift" transform="translate(717.742 1320.818)">
      <path id="Path_682" data-name="Path 682" d="M57.613,52.758H6a2.5,2.5,0,0,1-2.5-2.5V18a2.5,2.5,0,0,1,5,0V47.758H55.113V18a2.5,2.5,0,0,1,5,0V50.258A2.5,2.5,0,0,1,57.613,52.758Z" transform="translate(3.452 17.258)" fill="#5a657b"/>
      <path id="Path_683" data-name="Path 683" d="M3,8H67.517a2.5,2.5,0,0,1,2.5,2.5V26.629a2.5,2.5,0,0,1-2.5,2.5H3a2.5,2.5,0,0,1-2.5-2.5V10.5A2.5,2.5,0,0,1,3,8Zm62.017,5H5.5V24.129H65.017Z" transform="translate(0 8.629)" fill="#5a657b"/>
      <path id="Path_684" data-name="Path 684" d="M18,61.387a2.5,2.5,0,0,1-2.5-2.5V10.5a2.5,2.5,0,1,1,5,0V58.887A2.5,2.5,0,0,1,18,61.387Z" transform="translate(17.258 8.629)" fill="#5a657b"/>
      <path id="Path_685" data-name="Path 685" d="M30.081,21.629H15.565A10.565,10.565,0,1,1,15.565.5c5.583,0,10.315,3.237,13.683,9.36a34.143,34.143,0,0,1,3.285,8.779,2.5,2.5,0,0,1-2.451,2.99ZM15.565,5.5a5.565,5.565,0,0,0,0,11.129H26.771C25.345,12.483,21.99,5.5,15.565,5.5Z" transform="translate(5.177 0)" fill="#5a657b"/>
      <path id="Path_686" data-name="Path 686" d="M32.516,21.629H18a2.5,2.5,0,0,1-2.451-2.99A34.143,34.143,0,0,1,18.834,9.86C22.2,3.737,26.933.5,32.516.5a10.565,10.565,0,1,1,0,21.129Zm-11.211-5H32.516a5.565,5.565,0,1,0,0-11.129c-3.7,0-6.831,2.278-9.3,6.769A28.132,28.132,0,0,0,21.3,16.629Z" transform="translate(17.258 0)" fill="#5a657b"/>
    </g>
  </g>
</svg>
