<svg xmlns="http://www.w3.org/2000/svg" width="49.163" height="65.055" viewBox="0 0 49.163 65.055">
  <g id="Group_1002" data-name="Group 1002" transform="translate(-475.215 -9545.551)">
    <path id="Path_632" data-name="Path 632" d="M10.053,57.324a22.883,22.883,0,0,1-7.81-17.269V13.34L24.571,2.49,46.92,13.34V40.055a22.894,22.894,0,0,1-6.571,16.1l-2.243,1.994a21.959,21.959,0,0,1-25.808.9M0,11.936V40.055a24.819,24.819,0,0,0,24.581,25,24.819,24.819,0,0,0,24.581-25V11.936L24.571,0Z" transform="translate(475.215 9545.555)" fill="#262b3b"/>
    <path id="Path_633" data-name="Path 633" d="M73.117,111.333H42.754V79.462H73.117Zm-27.945-2.418H70.7V81.88H45.172Z" transform="translate(441.861 9483.559)" fill="#262b3b"/>
    <path id="Path_634" data-name="Path 634" d="M81.436,139.894a8.559,8.559,0,1,1,8.559-8.558,8.568,8.568,0,0,1-8.559,8.558m0-14.7a6.14,6.14,0,1,0,6.14,6.14,6.147,6.147,0,0,0-6.14-6.14" transform="translate(418.361 9449.768)" fill="#262b3b"/>
    <rect id="Rectangle_1036" data-name="Rectangle 1036" width="4.674" height="2.418" transform="translate(498.075 9567.676)" fill="#262b3b"/>
    <rect id="Rectangle_1037" data-name="Rectangle 1037" width="4.674" height="2.418" transform="translate(504.81 9567.676)" fill="#262b3b"/>
  </g>
</svg>
