<svg xmlns="http://www.w3.org/2000/svg" width="50.043" height="65.952" viewBox="0 0 50.043 65.952">
  <path id="Union_1" data-name="Union 1" d="M0-10005.038v-28.051L24.511-10045l24.531,11.911v28.051A24.761,24.761,0,0,1,24.521-9980.1,24.761,24.761,0,0,1,0-10005.038Zm2.239,0a22.826,22.826,0,0,0,7.79,17.226l2.239,1.72a21.856,21.856,0,0,0,12.254,3.751,21.9,21.9,0,0,0,13.49-4.644l2.239-1.989a22.845,22.845,0,0,0,6.555-16.063v-14.551c-.373.182-.8.406-1.18.607-2.155,1.13-5.1,2.68-8.092,2.68a15.4,15.4,0,0,1-6.239-1.777,16.126,16.126,0,0,0-6.676-1.86c-2.549,0-4.654,1.1-6.688,2.168-1.883.988-3.663,1.921-5.662,1.921a20.019,20.019,0,0,1-10.028-3.08Zm0-26.651v9.867c1.205.864,5.347,3.56,10.028,3.56,1.4,0,2.859-.764,4.543-1.646,2.186-1.145,4.664-2.442,7.807-2.442a18.283,18.283,0,0,1,7.659,2.069,13.393,13.393,0,0,0,5.256,1.568c2.392,0,5.039-1.392,6.97-2.405a16.51,16.51,0,0,1,2.3-1.079v-9.491l-22.293-10.822Zm19.074,37.605a4.934,4.934,0,0,1,4.928-4.929,4.934,4.934,0,0,1,4.928,4.929,4.932,4.932,0,0,1-4.928,4.926A4.932,4.932,0,0,1,21.312-9994.084Zm2.413,0a2.52,2.52,0,0,0,2.516,2.516,2.518,2.518,0,0,0,2.516-2.516,2.517,2.517,0,0,0-2.516-2.517A2.518,2.518,0,0,0,23.725-9994.084Zm-15.33-10.565a4.934,4.934,0,0,1,4.928-4.929,4.934,4.934,0,0,1,4.928,4.929,4.933,4.933,0,0,1-4.928,4.928A4.933,4.933,0,0,1,8.395-10004.649Zm2.413,0a2.519,2.519,0,0,0,2.516,2.516,2.519,2.519,0,0,0,2.516-2.516,2.518,2.518,0,0,0-2.516-2.517A2.518,2.518,0,0,0,10.807-10004.649Zm17.949-3.724a4.934,4.934,0,0,1,4.928-4.929,4.934,4.934,0,0,1,4.928,4.929,4.934,4.934,0,0,1-4.928,4.929A4.934,4.934,0,0,1,28.757-10008.373Zm2.413,0a2.518,2.518,0,0,0,2.516,2.516,2.516,2.516,0,0,0,2.516-2.516,2.518,2.518,0,0,0-2.516-2.516A2.519,2.519,0,0,0,31.169-10008.373Z" transform="translate(0.5 10045.556)" fill="#262b3b" stroke="rgba(0,0,0,0)" stroke-width="1"/>
</svg>
