<svg xmlns="http://www.w3.org/2000/svg" width="49.163" height="65.055" viewBox="0 0 49.163 65.055">
  <g id="Group_1003" data-name="Group 1003" transform="translate(-480.228 -9636.462)">
    <path id="Path_635" data-name="Path 635" d="M32.853,470.823a22.883,22.883,0,0,1-7.81-17.269V426.839l22.328-10.85,22.348,10.85v26.715a22.894,22.894,0,0,1-6.571,16.1l-2.243,1.994a21.959,21.959,0,0,1-25.808.9M22.8,425.435v28.119a24.819,24.819,0,0,0,24.581,25,24.819,24.819,0,0,0,24.581-25V425.435l-24.591-11.94Z" transform="translate(457.428 9222.967)" fill="#262b3b"/>
    <path id="Path_636" data-name="Path 636" d="M70.111,532.254a7.952,7.952,0,0,1-7.943-7.943v-9.149h2.418v9.149a5.525,5.525,0,0,0,11.05,0v-9.149h2.418v9.149a7.952,7.952,0,0,1-7.943,7.943" transform="translate(426.715 9143.652)" fill="#262b3b"/>
    <rect id="Rectangle_1038" data-name="Rectangle 1038" width="2.418" height="9.93" transform="translate(495.618 9674.639)" fill="#262b3b"/>
    <rect id="Rectangle_1039" data-name="Rectangle 1039" width="9.929" height="2.418" transform="translate(491.862 9683.359)" fill="#262b3b"/>
    <rect id="Rectangle_1040" data-name="Rectangle 1040" width="12.996" height="2.418" transform="translate(490.565 9660.336)" fill="#262b3b"/>
    <path id="Path_637" data-name="Path 637" d="M137.695,496.338a7.977,7.977,0,0,1-7.735-6.146l-2.072-8.912,2.356-.548,2.072,8.912a5.525,5.525,0,0,0,10.762-2.5l-2.072-8.912,2.356-.548,2.072,8.912a7.948,7.948,0,0,1-7.739,9.743" transform="translate(375.444 9172.891)" fill="#262b3b"/>
    <rect id="Rectangle_1041" data-name="Rectangle 1041" width="2.419" height="9.93" transform="translate(513.475 9668.061) rotate(-13.089)" fill="#262b3b"/>
    <rect id="Rectangle_1042" data-name="Rectangle 1042" width="9.929" height="2.418" transform="translate(511.792 9677.404) rotate(-13.083)" fill="#262b3b"/>
    <rect id="Rectangle_1043" data-name="Rectangle 1043" width="12.995" height="2.419" transform="translate(505.315 9655.273) rotate(-13.083)" fill="#262b3b"/>
  </g>
</svg>
