<svg xmlns="http://www.w3.org/2000/svg" width="49.163" height="65.055" viewBox="0 0 49.163 65.055">
  <g id="Group_1004" data-name="Group 1004" transform="translate(-480.734 -9735.598)">
    <path id="Path_638" data-name="Path 638" d="M35.153,921.732a22.883,22.883,0,0,1-7.81-17.269V877.748L49.671,866.9,72.02,877.748v26.715a22.894,22.894,0,0,1-6.571,16.1l-2.243,1.994a21.959,21.959,0,0,1-25.808.9M25.1,876.344v28.119a24.585,24.585,0,1,0,49.163,0V876.344L49.671,864.4Z" transform="translate(455.634 8871.193)" fill="#262b3b"/>
    <path id="Path_639" data-name="Path 639" d="M66.524,1004.507a4.119,4.119,0,0,1-1.891-8.016l1.114-2.027a6.011,6.011,0,1,0,5.7,7.7l-2.267.474A4.107,4.107,0,0,1,66.524,1004.507Z" transform="translate(428.665 8769.729)" fill="#262b3b"/>
    <path id="Path_640" data-name="Path 640" d="M102.71,955.855a.946.946,0,1,0,1.56-1.069L97.4,944.762l1.888-1.1a.946.946,0,0,0-.953-1.634l-2.768,1.613a.946.946,0,0,0-.3,1.352l.873,1.275-7.673,3.806-1.24-1.77,1.288-.269a.946.946,0,1,0-.387-1.852l-3.967.829a.946.946,0,0,0,.387,1.852l.664-.139,1.834,2.618-4.215,7.669a.946.946,0,0,0,1.022,1.381l8.924-1.866a.945.945,0,0,0,.669-.537l4.26-9.438Zm-17.233,2.264,2.776-5.051,2.731,3.9ZM92.4,955.7l-2.841-4.057,6.021-2.986Z" transform="translate(410.688 8810.738)" fill="#262b3b"/>
    <path id="Path_641" data-name="Path 641" d="M155.231,975.642l1.308,1.909a4.121,4.121,0,1,1-4.681,3.209l-1.307-1.906a6.009,6.009,0,1,0,4.679-3.211" transform="translate(358.291 8784.439)" fill="#262b3b"/>
    <rect id="Rectangle_1044" data-name="Rectangle 1044" width="38.078" height="2.419" transform="matrix(0.978, -0.209, 0.209, 0.978, 487.662, 9778.838)" fill="#262b3b"/>
  </g>
</svg>
