<svg xmlns="http://www.w3.org/2000/svg" width="49.043" height="64.896" viewBox="0 0 49.043 64.896">
  <g id="Group_1034" data-name="Group 1034" transform="translate(-1443 -224.959)">
    <path id="Union_17" data-name="Union 17" d="M0-10033.089v28.051A24.759,24.759,0,0,0,24.522-9980.1a24.759,24.759,0,0,0,24.522-24.935v-28.051L24.511-10045Z" transform="translate(1443 10269.959)" fill="#f0e8d9"/>
    <path id="car" d="M25.7,3.454H22.663l-1.55-4.4-.459-.158a25.6,25.6,0,0,0-7.705-1.059A27.934,27.934,0,0,0,5.062-1.115l-.475.153L3.046,3.454H0V5.461H2.306L.942,7.6A6.012,6.012,0,0,0,0,10.838v6.669a3.011,3.011,0,0,0,6.023,0V17H19.675v.5a3.011,3.011,0,0,0,6.023,0V10.83a6.016,6.016,0,0,0-.932-3.219l-1.359-2.15H25.7ZM6.147.663a27.655,27.655,0,0,1,6.8-.823,25.67,25.67,0,0,1,6.6.816l1.3,3.7h-16ZM4.015,17.507a1,1,0,0,1-2.008,0V17H4.015ZM15.609,15H10.088V11.986h5.521Zm7.077,3.513a1,1,0,0,1-1-1V17H23.69v.5A1,1,0,0,1,22.686,18.51Zm1-3.513H17.617V9.978H8.081V15H2.008V10.838a4.008,4.008,0,0,1,.628-2.156L4.11,6.364H21.6l1.466,2.319a4.009,4.009,0,0,1,.621,2.146ZM6.525,10.982a1,1,0,0,1-1,1h-1a1,1,0,1,1,0-2.008h1A1,1,0,0,1,6.525,10.982Zm15.659,0a1,1,0,0,1-1,1h-1a1,1,0,1,1,0-2.008h1A1,1,0,0,1,22.184,10.982Zm0,0" transform="translate(1454.673 248.222)" fill="#262b3b"/>
  </g>
</svg>
