<svg xmlns="http://www.w3.org/2000/svg" width="49.043" height="64.896" viewBox="0 0 49.043 64.896">
  <g id="Group_1032" data-name="Group 1032" transform="translate(-1321 -224.959)">
    <path id="Union_15" data-name="Union 15" d="M0-10033.089v28.051A24.759,24.759,0,0,0,24.522-9980.1a24.759,24.759,0,0,0,24.522-24.935v-28.051L24.511-10045Z" transform="translate(1321 10269.959)" fill="#f0e8d9"/>
    <g id="Group_1019" data-name="Group 1019" transform="matrix(0.978, 0.208, -0.208, 0.978, 543.824, -2668.594)">
      <path id="Path_639" data-name="Path 639" d="M66.524,1004.507a4.119,4.119,0,0,1-1.891-8.016l1.114-2.027a6.011,6.011,0,1,0,5.7,7.7l-2.267.474A4.107,4.107,0,0,1,66.524,1004.507Z" transform="translate(1316.931 1700.682)" fill="#262b3b"/>
      <path id="Path_640" data-name="Path 640" d="M102.71,955.855a.946.946,0,1,0,1.56-1.069L97.4,944.762l1.888-1.1a.946.946,0,0,0-.953-1.634l-2.768,1.613a.946.946,0,0,0-.3,1.352l.873,1.275-7.673,3.806-1.24-1.77,1.288-.269a.946.946,0,1,0-.387-1.852l-3.967.829a.946.946,0,0,0,.387,1.852l.664-.139,1.834,2.618-4.215,7.669a.946.946,0,0,0,1.022,1.381l8.924-1.866a.945.945,0,0,0,.669-.537l4.26-9.438Zm-17.233,2.264,2.776-5.051,2.731,3.9ZM92.4,955.7l-2.841-4.057,6.021-2.986Z" transform="translate(1298.955 1741.691)" fill="#262b3b"/>
      <path id="Path_641" data-name="Path 641" d="M155.231,975.642l1.308,1.909a4.121,4.121,0,1,1-4.681,3.209l-1.307-1.906a6.009,6.009,0,1,0,4.679-3.211" transform="translate(1246.558 1715.393)" fill="#262b3b"/>
    </g>
  </g>
</svg>
