<svg id="Group_964" data-name="Group 964" xmlns="http://www.w3.org/2000/svg" xmlns:xlink="http://www.w3.org/1999/xlink" width="127.675" height="44.596" viewBox="0 0 127.675 44.596">
  <defs>
    <clipPath id="clip-path">
      <rect id="Rectangle_1005" data-name="Rectangle 1005" width="127.675" height="44.596" fill="#262b3b"/>
    </clipPath>
  </defs>
  <g id="Group_959" data-name="Group 959">
    <g id="Group_958" data-name="Group 958" clip-path="url(#clip-path)">
      <path id="Path_556" data-name="Path 556" d="M32.164,9.148V27.461a15.694,15.694,0,0,1-4.5,11.038V36.045a6.648,6.648,0,0,0-3.244-5.707,7,7,0,0,0-2.826-13.4H6.892V39.3A15.687,15.687,0,0,1,1.538,27.461V9.147L16.844,1.71ZM8.429,40.481V30.936H21.013a5.114,5.114,0,0,1,5.108,5.108v3.821a15.053,15.053,0,0,1-17.692.615M21.013,29.4H8.429V18.477H21.589a5.461,5.461,0,1,1,0,10.921ZM0,8.185V27.461A17.014,17.014,0,0,0,16.851,44.6,17.014,17.014,0,0,0,33.7,27.461V8.185L16.844,0Z" fill="#262b3b"/>
      <path id="Path_557" data-name="Path 557" d="M92.25,40.1a1.933,1.933,0,1,1-1.933,1.933A1.935,1.935,0,0,1,92.25,40.1m0,5.4a3.47,3.47,0,1,0-3.47-3.47,3.474,3.474,0,0,0,3.47,3.47" transform="translate(-75.4 -32.747)" fill="#262b3b"/>
    </g>
  </g>
  <path id="Path_558" data-name="Path 558" d="M287.952,109.187l3.884-6.8h-1.5L287.2,108h-.021l-3.161-5.609h-1.642l3.894,6.8Z" transform="translate(-239.816 -86.959)" fill="#262b3b"/>
  <rect id="Rectangle_1006" data-name="Rectangle 1006" width="1.322" height="5.103" transform="translate(52.823 17.125)" fill="#262b3b"/>
  <rect id="Rectangle_1007" data-name="Rectangle 1007" width="1.394" height="1.198" transform="translate(52.793 15.194)" fill="#262b3b"/>
  <rect id="Rectangle_1008" data-name="Rectangle 1008" width="1.322" height="7.231" transform="translate(55.415 14.998)" fill="#262b3b"/>
  <g id="Group_961" data-name="Group 961">
    <g id="Group_960" data-name="Group 960" clip-path="url(#clip-path)">
      <path id="Path_559" data-name="Path 559" d="M388.8,116.053c0,.6-.733,1.26-2.365,1.26-1.3,0-1.591-.382-1.591-.723,0-.486.424-.568,1.2-.568H388.8Zm-3.068-.816c-1.281,0-2.1.413-2.1,1.4,0,.806.682,1.6,2.541,1.6,1.715,0,2.448-.506,2.675-1.322h.01c-.01.351-.031.878-.062,1.229h1.322v-2.892c0-1.426-1.095-2.314-3.264-2.314-2.128,0-3.057.692-3.057,1.683a1.684,1.684,0,0,0,.01.186h1.26a.637.637,0,0,1-.01-.124c0-.434.434-.805,1.766-.805,1.4,0,1.973.413,1.973,1.25v.1Z" transform="translate(-325.815 -95.922)" fill="#262b3b"/>
      <path id="Path_560" data-name="Path 560" d="M293.611,172.515h-4.288v-2.985H293.2c1.976,0,2.708.585,2.708,1.493s-.7,1.493-2.3,1.493m4.186-1.771c0-1.712-1.229-2.81-4.434-2.81H287.3v9.63h2.02v-3.717H293.8c1.39,0,1.932.542,1.932,1.668v2.049h2.005v-2.049A2.146,2.146,0,0,0,296,173.056v-.029a2.235,2.235,0,0,0,1.8-2.283" transform="translate(-244.002 -142.624)" fill="#262b3b"/>
      <path id="Path_561" data-name="Path 561" d="M373.522,185.961h-5.693c.249-1.127,1.127-1.742,2.941-1.742,1.976,0,2.751.732,2.751,1.7Zm-2.825-3.073c-3.044,0-4.815,1.507-4.815,3.82,0,1.8,1.112,3.7,4.932,3.7,3.088,0,4.332-1.244,4.42-2.5h-1.712c-.117.6-.79,1.171-2.707,1.171-2.21,0-2.912-.893-3.044-1.99h7.464V186.5c0-2.239-1.449-3.615-4.537-3.615" transform="translate(-310.739 -155.324)" fill="#262b3b"/>
      <path id="Path_562" data-name="Path 562" d="M443.029,188.947c-2.239,0-3.337-1.039-3.337-2.034v-.146c.029-1.346,1.229-2.415,3.322-2.415,2.034,0,3.015.937,3.015,2.225,0,1.595-1.025,2.371-3,2.371m.278-6.059c-1.976,0-3.19.7-3.629,1.976h-.015l.029-1.83h-1.873v10.128h1.873v-2.9c0-.351-.044-1.083-.073-1.537h.015c.542,1.069,1.6,1.683,3.732,1.683,2.766,0,4.522-1.347,4.522-3.879,0-2.166-1.6-3.644-4.581-3.644" transform="translate(-371.833 -155.324)" fill="#262b3b"/>
      <path id="Path_563" data-name="Path 563" d="M521.388,186.814c0,1.829-1.581,2.883-3.439,2.883-2.063,0-2.737-.819-2.737-2.151v-3.688h-1.873v4.083c0,1.741,1.185,3.293,4,3.293,2.342,0,3.644-.761,4.083-2.386h.029c0,.746-.029,1.712-.059,2.239h1.873v-7.23h-1.873Z" transform="translate(-435.972 -156.148)" fill="#262b3b"/>
      <path id="Path_564" data-name="Path 564" d="M595.8,172.782c-2.239,0-3.337-1.039-3.337-2.049v-.088c0-1.39,1.317-2.459,3.351-2.459,2.107,0,2.971,1.01,2.971,2.21,0,1.478-.937,2.386-2.986,2.386m.307-6.059c-2.254,0-3.278.863-3.644,1.946h-.029c.015-.278.029-.8.029-1.156v-3.659h-1.873V174.1h1.873c-.029-.41-.073-1.083-.073-1.6h.015c.293.878,1.3,1.742,3.805,1.742,2.766,0,4.449-1.493,4.449-3.879,0-2.122-1.536-3.644-4.551-3.644" transform="translate(-501.578 -139.16)" fill="#262b3b"/>
    </g>
  </g>
  <rect id="Rectangle_1010" data-name="Rectangle 1010" width="1.873" height="10.244" transform="translate(100.522 24.695)" fill="#262b3b"/>
  <rect id="Rectangle_1011" data-name="Rectangle 1011" width="1.976" height="1.698" transform="translate(104.083 24.973)" fill="#262b3b"/>
  <rect id="Rectangle_1012" data-name="Rectangle 1012" width="1.873" height="7.23" transform="translate(104.127 27.71)" fill="#262b3b"/>
  <path id="Path_565" data-name="Path 565" d="M724.894,166.87H722.26l-5.517,3.893h-.015v-6.908h-1.873V174.1h1.873v-1.654l2.02-1.346,3.615,3h2.781l-4.99-4.025Z" transform="translate(-607.116 -139.16)" fill="#262b3b"/>
  <g id="Group_963" data-name="Group 963">
    <g id="Group_962" data-name="Group 962" clip-path="url(#clip-path)">
      <path id="Path_566" data-name="Path 566" d="M793.467,187.293c0,.849-1.039,1.785-3.351,1.785-1.844,0-2.254-.541-2.254-1.024,0-.688.6-.8,1.7-.8h3.908Zm-2.751-4.405c-3.015,0-4.332.98-4.332,2.385a2.359,2.359,0,0,0,.015.264h1.785a.918.918,0,0,1-.015-.176c0-.615.615-1.142,2.5-1.142,1.99,0,2.8.585,2.8,1.771v.146H789.12c-1.815,0-2.971.585-2.971,1.991,0,1.141.966,2.268,3.6,2.268,2.43,0,3.469-.717,3.791-1.873h.015c-.015.5-.044,1.244-.088,1.742h1.873v-4.1c0-2.019-1.551-3.278-4.625-3.278" transform="translate(-667.665 -155.324)" fill="#262b3b"/>
    </g>
  </g>
</svg>
