<svg xmlns="http://www.w3.org/2000/svg" width="556" height="736" viewBox="0 0 556 736" fill="none">
<path d="M277.673 0.834961L0 135.772V453.536C0 471.526 1.66343 489.131 4.83963 506.199C6.66579 515.999 8.99218 525.624 11.7887 535.044C42.0439 636.96 127.518 714.743 232.676 732.276C240.993 733.668 249.437 734.674 257.989 735.283C264.528 735.759 271.134 736 277.787 736C430.962 736 555.575 609.29 555.575 453.536V135.766L277.673 0.834961ZM232.676 521.562V706.613C133.376 688.665 54.2966 612.611 31.9066 514.932L110.709 436.124C122.69 424.143 132.153 410.172 138.83 394.605L221.411 202.008L246.688 303.194L271.248 297.059L264.733 270.98H299.641L325.057 332.196H397.561L417.287 351.916L394.294 388.041H366.196C346.006 388.041 325.744 392.724 307.603 401.59C289.455 410.449 273.303 423.546 260.894 439.469C242.699 462.811 232.676 491.964 232.676 521.562ZM530.225 453.536C530.225 454.416 530.225 455.29 530.213 456.164C530.225 456.875 530.225 457.586 530.225 458.297C530.225 594.843 421.777 706.064 286.315 710.512C285.99 710.524 285.665 710.536 285.333 710.542C284.61 710.567 283.881 710.585 283.157 710.597C282.326 710.615 281.5 710.633 280.668 710.639C279.74 710.651 278.806 710.657 277.872 710.657C276.938 710.657 276.052 710.651 275.148 710.639C274.786 710.639 274.43 710.633 274.069 710.627C273.165 710.615 272.261 710.597 271.357 710.573C270.38 710.548 269.41 710.518 268.44 710.482C267.632 710.452 266.83 710.422 266.023 710.38C265.342 710.35 264.661 710.313 263.98 710.277C263.835 710.271 263.696 710.265 263.552 710.253C261.689 710.151 259.839 710.024 257.989 709.879V521.562C257.989 497.575 266.113 473.949 280.855 455.037C290.914 442.127 304.005 431.514 318.71 424.329C333.41 417.151 349.833 413.354 366.196 413.354H398.483C404.564 413.354 410.139 410.293 413.399 405.17L458.656 334.052C462.121 328.61 462.344 321.709 459.234 316.05C456.13 310.396 450.194 306.883 443.739 306.883H341.95L316.541 245.667H258.411L238.823 167.263C237.226 160.856 231.723 156.191 225.136 155.661C218.549 155.143 212.371 158.861 209.767 164.93L115.566 384.624C110.16 397.226 102.506 408.533 92.8087 418.23L26.8379 484.201C26.2473 478.457 25.8555 472.653 25.6627 466.795C25.4457 462.39 25.3372 457.972 25.3493 453.536V151.635L277.679 29.0169L530.225 151.635V453.536Z" fill="#f0e8d9"/>
</svg>