<svg xmlns="http://www.w3.org/2000/svg" width="49.043" height="64.896" viewBox="0 0 49.043 64.896">
  <path id="Path_572" data-name="Path 572" d="M721.628,0,697.117,11.911v28.05a24.525,24.525,0,1,0,49.043,0V11.911Zm0,2.488,22.293,10.824V27.6L733.275,16.951l-11.4,11.4-6.638-6.638L699.355,37.6V13.311Zm15.738,53.537-2.238,1.989a21.906,21.906,0,0,1-25.745.895l-2.238-1.72a22.817,22.817,0,0,1-7.777-16.453l.13.13,15.744-15.743,15.743,15.743,1.706-1.706-9.106-9.106,9.69-9.69L743.922,31.01v8.952a22.838,22.838,0,0,1-6.555,16.063" transform="translate(-697.117)" fill="#f0e8d9"/>
</svg>
