<svg xmlns="http://www.w3.org/2000/svg" width="49.043" height="64.896" viewBox="0 0 49.043 64.896">
  <path id="Path_571" data-name="Path 571" d="M394.593,0,370.082,11.911v28.05a24.525,24.525,0,1,0,49.043,0V11.911Zm22.294,39.961a22.838,22.838,0,0,1-6.555,16.063l-2.238,1.989a21.922,21.922,0,0,1-12.284,4.608V49.053H393.4V62.621a21.873,21.873,0,0,1-11.048-3.714l-2.238-1.72a22.827,22.827,0,0,1-7.791-17.227V38.585H408.16V22.6h-2.413v13.57H372.32V25.06h20.592V22.648H372.32V13.311L394.593,2.488l22.293,10.824Z" transform="translate(-370.082)" fill="#f0e8d9"/>
</svg>
