<svg xmlns="http://www.w3.org/2000/svg" width="22.424" height="18.711" viewBox="0 0 22.424 18.711">
  <g id="Icon_feather-camera" data-name="Icon feather-camera" transform="translate(-0.5 -3.5)">
    <path id="Path_618" data-name="Path 618" d="M21.924,19.354a1.857,1.857,0,0,1-1.857,1.857H3.357A1.857,1.857,0,0,1,1.5,19.354V9.142A1.857,1.857,0,0,1,3.357,7.285H7.07L8.927,4.5H14.5l1.857,2.785h3.714a1.857,1.857,0,0,1,1.857,1.857Z" fill="none" stroke="#262b3b" stroke-linecap="round" stroke-linejoin="round" stroke-width="2"/>
    <path id="Path_619" data-name="Path 619" d="M19.427,17.214A3.714,3.714,0,1,1,15.714,13.5,3.714,3.714,0,0,1,19.427,17.214Z" transform="translate(-4.001 -3.43)" fill="none" stroke="#262b3b" stroke-linecap="round" stroke-linejoin="round" stroke-width="2"/>
  </g>
</svg>
