<svg xmlns="http://www.w3.org/2000/svg" width="49.043" height="64.896" viewBox="0 0 49.043 64.896">
  <g id="Group_1033" data-name="Group 1033" transform="translate(-1382 -224.959)">
    <path id="Union_16" data-name="Union 16" d="M0-10033.089v28.051A24.759,24.759,0,0,0,24.522-9980.1a24.759,24.759,0,0,0,24.522-24.935v-28.051L24.511-10045Z" transform="translate(1382 10269.959)" fill="#f0e8d9"/>
    <path id="stick-man-walking" d="M90.495,7.95A3.975,3.975,0,1,0,86.52,3.975,3.979,3.979,0,0,0,90.495,7.95Zm0-6.044a2.068,2.068,0,1,1-2.069,2.068A2.071,2.071,0,0,1,90.495,1.907Zm6.178,32.616a.953.953,0,0,1-.953.953H93.143c-.032,0-.064,0-.1-.005h0q-.044,0-.086-.013l-.024-.006-.063-.016-.032-.011-.051-.019-.036-.015-.044-.021-.036-.02-.04-.024L92.6,35.3l-.038-.028-.032-.025-.036-.033-.028-.027-.035-.039-.024-.027c-.012-.015-.023-.03-.034-.045l-.019-.026c-.011-.017-.021-.034-.032-.052s-.027-.049-.039-.074c0-.01-.009-.019-.014-.028s-.016-.041-.023-.061-.006-.014-.008-.022-.012-.043-.018-.065l-.006-.022c0-.021-.008-.043-.011-.064s0-.014,0-.021l0-.018v-.007L89.821,15.934a.953.953,0,0,1,1.891-.24l2.272,17.875H95.72A.953.953,0,0,1,96.673,34.523Zm2.095-10.875a.953.953,0,0,1-1.24-.529l-3.007-7.479c-.916-2.278-1.779-3.739-3.252-3.982a37.343,37.343,0,0,0-4.116.014c-1.73.323-2.95,2.2-4.051,4.092l-.034.058,1.945,5.031a.953.953,0,0,1-1.778.688l-2.11-5.457a.953.953,0,0,1,.065-.823l.264-.454C82.72,12.629,84.281,10.269,86.8,9.8a33.456,33.456,0,0,1,4.775-.021c2.609.43,3.8,2.885,4.711,5.152L99.3,22.407A.953.953,0,0,1,98.768,23.647Zm-9.174,1.088L86.6,33.569h1.246a.953.953,0,1,1,0,1.907H85.27a.939.939,0,0,1-.094-.005h-.012l-.074-.011-.026-.005-.056-.015-.033-.01-.011,0-.027-.011-.051-.02-.042-.02-.04-.021-.046-.028-.03-.02-.048-.036-.024-.02c-.016-.013-.03-.027-.045-.041l-.023-.022-.039-.043-.023-.027-.031-.042-.024-.035L84.446,35c-.008-.014-.016-.028-.023-.042l-.018-.037c-.007-.015-.014-.031-.02-.047s-.01-.026-.014-.039-.011-.032-.016-.048-.008-.029-.011-.044-.007-.029-.01-.044-.006-.036-.008-.054,0-.025,0-.037,0-.042,0-.063,0-.016,0-.024,0-.006,0-.008c0-.02,0-.04,0-.061s0-.025,0-.037,0-.03.007-.046.006-.035.009-.052.005-.02.008-.03.011-.044.018-.065l0-.006,3.421-10.093a.953.953,0,1,1,1.806.612Z" transform="translate(1316.309 239.658)" fill="#262b3b"/>
  </g>
</svg>
