<svg xmlns="http://www.w3.org/2000/svg" width="49.043" height="64.896" viewBox="0 0 49.043 64.896">
  <g id="Group_1030" data-name="Group 1030" transform="translate(-915 -129.695)">
    <path id="Union_14" data-name="Union 14" d="M0-10033.089v28.051A24.759,24.759,0,0,0,24.522-9980.1a24.759,24.759,0,0,0,24.522-24.935v-28.051L24.511-10045Z" transform="translate(915 10174.695)" fill="#f0e8d9"/>
    <g id="Icon_feather-users" data-name="Icon feather-users" transform="translate(925.007 145.501)">
      <path id="Path_610" data-name="Path 610" d="M21.919,30.157V27.6a5.1,5.1,0,0,0-5.1-5.1H6.6a5.1,5.1,0,0,0-5.1,5.1v2.552" transform="translate(0 -2.686)" fill="none" stroke="#262b3b" stroke-linejoin="round" stroke-width="2"/>
      <path id="Path_611" data-name="Path 611" d="M17.709,9.6a5.1,5.1,0,1,1-5.1-5.1A5.1,5.1,0,0,1,17.709,9.6Z" transform="translate(-0.895 0)" fill="none" stroke="#262b3b" stroke-linejoin="round" stroke-width="2"/>
      <path id="Path_612" data-name="Path 612" d="M33.828,30.186V27.634A5.1,5.1,0,0,0,30,22.7" transform="translate(-4.253 -2.715)" fill="none" stroke="#262b3b" stroke-linejoin="round" stroke-width="2"/>
      <path id="Path_613" data-name="Path 613" d="M24,4.695a5.1,5.1,0,0,1,0,9.89" transform="translate(-3.358 -0.029)" fill="none" stroke="#262b3b" stroke-linejoin="round" stroke-width="2"/>
    </g>
  </g>
</svg>
